<?xml version="1.0" standalone="no"?>
<!DOCTYPE svg PUBLIC "-//W3C//DTD SVG 20010904//EN"
 "http://www.w3.org/TR/2001/REC-SVG-20010904/DTD/svg10.dtd">
<svg version="1.0" xmlns="http://www.w3.org/2000/svg"
 width="149.000000pt" height="378.000000pt" viewBox="0 0 149.000000 378.000000"
 preserveAspectRatio="xMidYMid meet">
<g transform="translate(0.000000,378.000000) scale(0.100000,-0.100000)"
fill="#000000" stroke="none">
<path d="M328 3153 c7 -3 16 -2 19 1 4 3 -2 6 -13 5 -11 0 -14 -3 -6 -6z"/>
<path d="M470 3120 c0 -6 7 -10 15 -10 8 0 15 2 15 4 0 2 -7 6 -15 10 -8 3
-15 1 -15 -4z"/>
<path d="M245 3095 c-44 -24 -65 -45 -86 -88 -18 -34 -19 -55 -16 -220 2 -110
10 -215 20 -267 25 -127 25 -130 32 -335 3 -104 12 -230 20 -280 8 -49 19
-124 24 -165 13 -97 30 -183 44 -220 3 -8 8 -32 12 -54 6 -39 9 -45 38 -104 9
-19 17 -39 17 -45 1 -7 9 -30 20 -52 11 -22 19 -46 20 -52 0 -7 4 -13 9 -13 5
0 12 -13 16 -30 4 -16 10 -30 15 -30 5 0 12 -10 16 -22 4 -13 10 -25 13 -28 4
-3 18 -23 31 -45 35 -57 35 -58 141 -166 53 -54 108 -101 123 -105 14 -3 26
-10 26 -15 0 -5 15 -9 33 -9 50 0 77 34 77 98 0 28 -4 53 -9 57 -5 3 -12 19
-16 36 -4 17 -13 42 -21 57 -8 15 -14 32 -14 38 0 7 -7 25 -15 40 -8 16 -15
36 -15 45 0 9 -7 30 -15 45 -8 16 -15 39 -15 52 0 12 -4 22 -9 22 -5 0 -12 17
-15 38 -4 20 -11 51 -16 67 -5 17 -16 55 -25 84 -19 64 -27 131 -16 131 9 0
27 -39 37 -84 4 -16 13 -41 20 -55 8 -14 14 -32 14 -38 0 -7 3 -13 8 -13 4 0
18 -25 31 -55 14 -30 28 -55 33 -55 4 0 8 -6 8 -13 0 -12 100 -157 157 -226
84 -103 214 -211 255 -211 9 0 20 -4 23 -10 9 -14 42 -7 67 14 18 16 20 26 15
78 -3 34 -10 64 -15 67 -6 3 -14 19 -17 34 -4 15 -10 27 -14 27 -3 0 -17 20
-31 45 -14 25 -28 45 -32 45 -5 0 -8 6 -8 13 -1 6 -9 30 -20 52 -11 22 -19 45
-20 51 0 7 -7 25 -15 40 -8 16 -15 36 -15 45 0 8 -4 19 -9 25 -5 5 -14 29 -19
54 -6 25 -16 65 -22 90 -6 25 -15 65 -21 90 -29 123 -29 587 0 705 6 22 11 54
11 71 0 17 6 37 14 43 8 7 18 31 21 54 4 23 11 44 14 47 8 5 31 182 38 293 3
44 1 67 -6 67 -6 0 -11 15 -11 33 0 47 -20 79 -65 104 -41 22 -125 31 -125 13
0 -17 -18 -11 -45 14 -14 14 -44 27 -66 31 -21 4 -39 11 -39 16 0 13 -118 11
-122 -2 -5 -14 -196 -17 -206 -3 -4 6 -18 15 -32 19 -14 4 -28 12 -31 17 -4 6
-44 12 -90 15 -65 3 -91 1 -114 -12z m170 -39 c43 -8 61 -16 63 -29 3 -13 -3
-17 -27 -17 -21 0 -31 -5 -31 -15 0 -20 27 -30 43 -16 8 6 53 14 101 17 48 4
89 11 92 16 7 12 204 10 204 -2 0 -5 11 -10 24 -10 29 0 44 -19 25 -30 -7 -5
-16 -7 -20 -4 -4 2 -12 -3 -20 -12 -10 -12 -9 -18 5 -32 10 -11 19 -13 24 -7
29 41 147 62 197 35 51 -27 58 -52 57 -203 -1 -83 -7 -147 -14 -160 -6 -12
-10 -23 -9 -25 11 -11 -31 -160 -54 -191 -32 -43 -97 -101 -115 -101 -11 0
-20 -4 -20 -10 0 -6 -30 -10 -70 -10 -38 0 -70 4 -70 9 0 5 -27 12 -60 16 -33
4 -60 10 -60 15 0 4 -19 10 -42 14 -23 4 -45 12 -49 18 -4 6 -56 12 -120 15
-217 9 -268 60 -284 288 -3 50 -11 111 -16 136 -8 33 -6 69 5 137 17 110 41
148 99 158 20 4 40 11 43 16 3 5 13 6 23 2 9 -3 43 -12 76 -18z m112 -32 c-3
-3 -12 -4 -19 -1 -8 3 -5 6 6 6 11 1 17 -2 13 -5z m428 -44 c3 -5 1 -10 -4
-10 -6 0 -11 5 -11 10 0 6 2 10 4 10 3 0 8 -4 11 -10z m-725 -590 c0 -5 -4
-10 -10 -10 -5 0 -10 5 -10 10 0 6 5 10 10 10 6 0 10 -4 10 -10z m23 -44 c28
-31 102 -48 172 -40 32 4 60 3 67 -3 13 -10 104 -28 121 -24 5 1 6 -3 3 -8 -3
-5 16 -12 42 -16 26 -4 52 -11 57 -15 35 -28 264 -29 273 0 2 5 9 10 16 10 19
0 59 37 52 49 -4 5 -3 12 2 15 13 8 12 -17 -9 -162 -21 -146 -25 -320 -9 -403
6 -29 15 -94 20 -144 6 -49 14 -99 19 -110 5 -11 12 -41 16 -67 3 -26 10 -50
16 -53 5 -4 9 -18 9 -33 0 -15 7 -40 15 -56 8 -15 15 -33 15 -38 0 -16 70
-169 81 -178 4 -3 17 -25 30 -50 13 -25 26 -47 29 -50 15 -12 40 -75 40 -101
0 -52 -55 -42 -148 27 -50 38 -172 166 -212 224 -8 12 -23 31 -32 42 -10 12
-18 27 -18 34 0 7 -4 14 -8 16 -11 4 -82 123 -82 137 0 6 -4 11 -9 11 -5 0
-12 14 -16 30 -4 17 -11 30 -16 30 -5 0 -9 5 -9 10 0 10 -26 69 -82 188 -19
40 -42 55 -50 31 -10 -30 39 -326 61 -368 5 -9 12 -35 16 -58 4 -24 11 -45 16
-49 5 -3 9 -15 9 -28 0 -12 7 -31 15 -42 8 -10 15 -26 15 -34 0 -8 7 -28 15
-44 8 -15 15 -33 15 -40 0 -6 7 -24 15 -39 8 -15 18 -50 23 -78 8 -40 6 -53
-6 -65 -16 -17 -52 -12 -79 9 -63 49 -165 155 -214 222 -32 44 -62 85 -66 90
-5 6 -19 33 -33 60 -14 28 -28 52 -33 53 -4 2 -5 7 -2 12 2 4 -7 29 -20 56
-14 27 -25 57 -25 66 0 9 -4 18 -8 20 -15 6 -66 215 -87 353 -7 50 -16 104
-19 120 -3 17 -10 107 -16 200 -6 94 -13 200 -16 238 -3 37 -3 67 1 67 3 0 16
-11 28 -24z"/>
<path d="M708 2973 c17 -2 47 -2 65 0 17 2 3 4 -33 4 -36 0 -50 -2 -32 -4z"/>
<path d="M928 2313 c6 -2 18 -2 25 0 6 3 1 5 -13 5 -14 0 -19 -2 -12 -5z"/>
<path d="M656 1297 c3 -10 9 -15 12 -12 3 3 0 11 -7 18 -10 9 -11 8 -5 -6z"/>
<path d="M462 1281 c-11 -6 -10 -10 0 -19 11 -8 14 -7 14 9 0 10 0 19 -1 19 0
0 -6 -4 -13 -9z"/>
<path d="M1065 1250 c3 -5 8 -10 11 -10 2 0 4 5 4 10 0 6 -5 10 -11 10 -5 0
-7 -4 -4 -10z"/>
<path d="M1126 1172 c-3 -5 1 -9 9 -9 8 0 12 4 9 9 -3 4 -7 8 -9 8 -2 0 -6 -4
-9 -8z"/>
<path d="M985 1160 c3 -5 8 -10 11 -10 2 0 4 5 4 10 0 6 -5 10 -11 10 -5 0 -7
-4 -4 -10z"/>
<path d="M1136 1137 c3 -10 9 -15 12 -12 3 3 0 11 -7 18 -10 9 -11 8 -5 -6z"/>
<path d="M690 956 c0 -2 7 -7 16 -10 8 -3 12 -2 9 4 -6 10 -25 14 -25 6z"/>
<path d="M166 3083 c-6 -14 -5 -15 5 -6 7 7 10 15 7 18 -3 3 -9 -2 -12 -12z"/>
<path d="M1232 2690 c0 -14 2 -19 5 -12 2 6 2 18 0 25 -3 6 -5 1 -5 -13z"/>
<path d="M837 1155 c3 -8 9 -12 14 -9 12 7 11 11 -5 17 -10 4 -13 1 -9 -8z"/>
<path d="M406 1082 c-3 -5 1 -9 9 -9 8 0 12 4 9 9 -3 4 -7 8 -9 8 -2 0 -6 -4
-9 -8z"/>
<path d="M887 1069 c7 -7 15 -10 18 -7 3 3 -2 9 -12 12 -14 6 -15 5 -6 -5z"/>
</g>
</svg>
